<?xml version="1.0" encoding="UTF-8"?>
<svg width="18px" height="14px" viewBox="0 0 18 14" version="1.1" xmlns="http://www.w3.org/2000/svg" xmlns:xlink="http://www.w3.org/1999/xlink">
    <title>Email Icon</title>
    <defs>
        <path d="M5.65446309,10.5346744 C5.78204595,10.6240556 5.90005356,10.7075694 6.00645975,10.7836853 C6.38829329,11.0580788 6.69787126,11.2721408 6.93568388,11.4255524 C7.17326773,11.5793148 7.48967583,11.7360428 7.8848755,11.8960552 C8.28007516,12.0562908 8.64828112,12.1361056 8.98988553,12.1361056 L8.98988553,12.1361056 L9.00988571,12.1361056 C9.35145744,12.1361056 9.7196634,12.0562589 10.1148957,11.8960552 C10.5098666,11.7360428 10.8262747,11.5793148 11.0640874,11.4255524 C11.3019327,11.2721408 11.611674,11.0580469 11.9933115,10.7836853 C12.1053386,10.7046357 12.2239345,10.6215045 12.3462885,10.5360137 L12.3462885,10.5360137 L17.4459754,15.5122458 C17.1479334,15.7696432 16.797342,15.9 16.3927305,15.9 L16.3927305,15.9 L1.60720413,15.9 C1.2026253,15.9 0.851805118,15.7696432 0.553795877,15.5122458 L0.553795877,15.5122458 Z M0,6.54967084 C0.294610518,6.86991883 0.633012282,7.15422939 1.01461705,7.40247499 C2.43701559,8.34564883 3.59562088,9.12217765 4.49484472,9.73474001 L4.49484472,9.73474001 L0,14.1206036 Z M18,6.54967084 L18,14.1207949 L13.5069527,9.73649383 C14.4645757,9.08391243 15.6273968,8.30604433 16.9955464,7.40247499 C17.3771512,7.14759675 17.7119255,6.86347751 18,6.54967084 L18,6.54967084 Z M16.3927305,2.1 C16.8279959,2.1 17.204764,2.25357107 17.5229368,2.56055378 C17.8407502,2.86791914 18,3.23695528 18,3.66823617 C18,4.18443396 17.8357501,4.67776828 17.5081328,5.14807969 C17.1799272,5.6183911 16.7715575,6.0203991 16.2827622,6.35352971 C14.6575187,7.45419681 13.4311023,8.2851579 12.5983497,8.8497293 C12.1406984,9.15980512 11.8003032,9.39070382 11.5818698,9.53901342 C11.5494839,9.56123914 11.4988952,9.59634747 11.4316724,9.64341369 C11.3592861,9.69395567 11.267684,9.75836878 11.1549052,9.83799232 C10.9372561,9.99159529 10.7564702,10.1157021 10.612482,10.2105361 C10.4682323,10.3051787 10.2942438,10.4113647 10.0900589,10.5290303 C9.88567797,10.6467277 9.69322525,10.7348971 9.51247197,10.7936661 C9.33162066,10.8524032 9.16420084,10.8818675 9.01024519,10.8818675 L9.01024519,10.8818675 L8.99024501,10.8818675 C8.83625668,10.8818675 8.66886954,10.8524032 8.48805091,10.7936661 C8.30726495,10.7348971 8.11464883,10.6465364 7.91043129,10.5290303 C7.70605035,10.4113647 7.53183308,10.305402 7.38804092,10.2105361 C7.24405269,10.1157021 7.06326673,9.9915634 6.84565038,9.83799232 C6.73264282,9.75836878 6.64104068,9.69398755 6.5686544,9.64325425 C6.50146425,9.59637936 6.45084287,9.56104781 6.41865304,9.53901342 C6.13825834,9.34660315 5.79864741,9.11474782 5.40485299,8.84701885 C4.94285533,8.53260631 4.40523607,8.16825766 3.78702784,7.75024205 C2.64182137,6.97607292 1.95540991,6.51044899 1.72779346,6.35352971 C1.31259361,6.07913621 0.920792672,5.70190494 0.552586716,5.22164457 C0.184380759,4.74119288 0.00019608021,4.29524365 0.00019608021,3.88366935 C0.00019608021,3.37413609 0.13898819,2.94926462 0.417029929,2.60953326 C0.694842909,2.26996134 1.09141514,2.1 1.60723681,2.1 L1.60723681,2.1 Z" id="path-1"></path>
    </defs>
    <g id="----🖥-81.01---Profile" stroke="none" stroke-width="1" fill="none" fill-rule="evenodd">
        <g id="icon-/-ios-/-email" transform="translate(0.000000, -2.000000)">
            <mask id="mask-2" fill="white">
                <use xlink:href="#path-1"></use>
            </mask>
            <use id="Color" fill="#F7F7F7" fill-rule="evenodd" xlink:href="#path-1"></use>
        </g>
    </g>
</svg>