<?xml version="1.0" encoding="UTF-8"?>
<svg width="18px" height="18px" viewBox="0 0 18 18" version="1.1" xmlns="http://www.w3.org/2000/svg" xmlns:xlink="http://www.w3.org/1999/xlink">
    <title>Inquiry Icon</title>
    <defs>
        <path d="M9,0 C13.9705627,0 18,4.02943725 18,9 C18,13.9705627 13.9705627,18 9,18 C4.02943725,18 0,13.9705627 0,9 C0,4.02943725 4.02943725,0 9,0 Z M8.94151353,11.4039956 C8.65741214,11.3791399 8.40301725,11.460982 8.17832122,11.6495244 C7.95362519,11.8380668 7.82885122,12.0743851 7.80399557,12.3584865 C7.77913992,12.6425879 7.86098204,12.8969828 8.0495244,13.1216788 C8.23806675,13.3463748 8.47438508,13.4711488 8.75848647,13.4960044 C9.04258786,13.5208601 9.29698275,13.439018 9.52167878,13.2504756 C9.74637481,13.0619332 9.87114878,12.8256149 9.89600443,12.5415135 C9.92086008,12.2574121 9.83901796,12.0030172 9.6504756,11.7783212 C9.46193325,11.5536252 9.22561492,11.4288512 8.94151353,11.4039956 Z M9.34383095,4.51804882 C8.79790419,4.47028642 8.27590697,4.5360341 7.77782364,4.71529384 C7.2797403,4.89455358 6.84454098,5.17735815 6.47221263,5.56371605 L6.47221263,5.56371605 L7.38703344,6.86043307 C7.6018768,6.62965268 7.84605552,6.45046581 8.11957693,6.32286709 C8.39309834,6.19526838 8.6894332,6.14543108 9.00859038,6.17335372 C9.36134305,6.20421558 9.60672739,6.30144716 9.74475076,6.46505138 C9.88277414,6.6286556 9.94288504,6.81218106 9.92508528,7.01563326 C9.90728552,7.21908545 9.81889908,7.38293408 9.65992331,7.50718406 C9.50094754,7.63143405 9.31829718,7.76029569 9.11196675,7.89377286 C8.97747072,7.98005399 8.84049008,8.07057293 8.70102071,8.16533241 C8.56155135,8.26009189 8.4312282,8.37124826 8.31004736,8.49880487 C8.18886651,8.62636148 8.08713658,8.77344439 8.00485449,8.94005802 C7.9225724,9.10667165 7.87137139,9.30497021 7.85124992,9.53495965 C7.81100699,9.99493853 7.91553511,10.3962697 8.16483743,10.7389652 L8.16483743,10.7389652 L9.57519347,10.4345117 C9.5134198,10.366713 9.46598644,10.2801149 9.43289195,10.1747148 C9.39979747,10.0693146 9.38789382,9.96354166 9.39718065,9.85739269 C9.41884992,9.60971176 9.52083036,9.41139916 9.70312502,9.26244895 C9.88541969,9.11349874 10.0934883,8.96012094 10.327337,8.80231095 C10.4878036,8.70938849 10.6492351,8.6054104 10.8116364,8.49037357 C10.9740377,8.37533674 11.1232865,8.24132452 11.2593874,8.08833288 C11.3954883,7.93534123 11.5104252,7.75821716 11.6042018,7.55695535 C11.6979784,7.35569353 11.7568613,7.1179571 11.7808523,6.84373892 C11.8079389,6.53413776 11.7718125,6.24575081 11.672472,5.97856944 C11.5731315,5.71138807 11.4182048,5.47500069 11.2076871,5.26940022 C10.9971695,5.06379975 10.7346863,4.89599397 10.4202295,4.76597783 C10.1057728,4.6359617 9.74697686,4.55331952 9.34383095,4.51804882 Z" id="path-1"></path>
    </defs>
    <g id="----🖥-81.01---Profile" stroke="none" stroke-width="1" fill="none" fill-rule="evenodd">
        <g id="icon-/-ios-/-inquiry">
            <mask id="mask-2" fill="white">
                <use xlink:href="#path-1"></use>
            </mask>
            <use id="Color" fill="#F7F7F7" fill-rule="evenodd" xlink:href="#path-1"></use>
        </g>
    </g>
</svg>