<?xml version="1.0" encoding="UTF-8"?>
<svg width="20px" height="16px" viewBox="0 0 20 16" version="1.1" xmlns="http://www.w3.org/2000/svg" xmlns:xlink="http://www.w3.org/1999/xlink">
    <title>77C09325-DCC1-4779-9D88-4379159464A0@1x</title>
    <defs>
        <filter id="filter-1">
            <feColorMatrix in="SourceGraphic" type="matrix" values="0 0 0 0 1.000000 0 0 0 0 1.000000 0 0 0 0 1.000000 0 0 0 1.000000 0"></feColorMatrix>
        </filter>
        <path d="M19.2078198,8.22727035 C18.6796605,6.96958933 17.9690633,5.88643696 17.0762236,4.97717645 C16.183423,4.06807513 15.1193645,3.34464685 13.8840872,2.80681199 C12.6487708,2.26897713 11.3543878,2 10.0000391,2 C8.64576859,2 7.35115104,2.26901693 6.11606916,2.80681199 C4.88098728,3.34484586 3.81700695,4.06807513 2.92416726,4.97717645 C2.03113212,5.88643696 1.32073038,6.96958933 0.792375681,8.22727035 C0.264138257,9.48495138 0,10.8029712 0,12.1818073 C0,14.1664988 0.524523773,15.9962836 1.5736495,17.6705249 C1.71492457,17.890228 1.9158526,18 2.17631629,18 L17.8237228,18 C18.0840692,18 18.2849972,17.8901882 18.4262723,17.6705249 C19.4754762,15.9887611 20,14.1590957 20,12.1818073 C20,10.8029712 19.735979,9.48495138 19.2078198,8.22727035 L19.2078198,8.22727035 Z M9.10610248,3.77287528 C9.39922385,3.479861 9.75259476,3.33333333 10.1666256,3.33333333 C10.5806975,3.33333333 10.9340684,3.47990204 11.2270667,3.77287528 C11.5200649,4.06572539 11.6666667,4.41927981 11.6666667,4.83333333 C11.6666667,5.24738685 11.5200649,5.60081815 11.2270667,5.89379139 C10.9340684,6.18676463 10.5806975,6.33333333 10.1666256,6.33333333 C9.75259476,6.33333333 9.39905968,6.18676463 9.10610248,5.89379139 C8.8132684,5.6007771 8.66666667,5.24738685 8.66666667,4.83333333 C8.66666667,4.41927981 8.81310423,4.06576643 9.10610248,3.77287528 L9.10610248,3.77287528 Z M3.89385544,13.2269146 C3.60087017,13.5197406 3.24730124,13.6666667 2.83323072,13.6666667 C2.41928334,13.6666667 2.0657144,13.5197406 1.77272914,13.2269146 C1.47970283,12.9342116 1.33333333,12.5805631 1.33333333,12.1665025 C1.33333333,11.752483 1.47970283,11.3991217 1.77272914,11.1061315 C2.06575545,10.8131413 2.41928334,10.6666667 2.83323072,10.6666667 C3.24730124,10.6666667 3.60103436,10.8131413 3.89385544,11.1061315 C4.18671756,11.3991217 4.33333333,11.752483 4.33333333,12.1665025 C4.33333333,12.5805631 4.18671756,12.9339243 3.89385544,13.2269146 L3.89385544,13.2269146 Z M6.22725988,8.22712472 C5.93413048,8.52005691 5.5807499,8.66666667 5.16666667,8.66666667 C4.75258343,8.66666667 4.39907972,8.51989274 4.10607346,8.22712472 C3.81323136,7.93427461 3.66666667,7.58072019 3.66666667,7.16666667 C3.66666667,6.75261315 3.81306719,6.39918185 4.10607346,6.10620861 C4.39920285,5.81319433 4.75258343,5.66666667 5.16666667,5.66666667 C5.58070886,5.66666667 5.93425361,5.81323537 6.22725988,6.10620861 C6.52010197,6.3992229 6.66666667,6.75261315 6.66666667,7.16666667 C6.66666667,7.58059706 6.52006093,7.93411044 6.22725988,8.22712472 L6.22725988,8.22712472 Z M12.6452714,8.25501592 L11.4770676,12.6347044 C11.8628637,12.894445 12.140423,13.2421311 12.3100695,13.6780037 C12.4794731,14.1136755 12.502765,14.5608325 12.3793783,15.0194344 C12.2252057,15.6080271 11.8820238,16.0552242 11.3499542,16.360825 C10.8178845,16.6665863 10.255191,16.7431672 9.66134698,16.5902062 C9.06778651,16.4373657 8.61661089,16.0972694 8.30830619,15.5697969 C8.0000015,15.0422039 7.9229152,14.4844524 8.0770878,13.8956991 C8.20039348,13.4372578 8.44327811,13.0608187 8.80570119,12.7667432 C9.16800276,12.4722662 9.58045295,12.3062137 10.0430518,12.2679032 L11.2111745,7.88813438 C11.2650904,7.68943366 11.3807401,7.53831991 11.5580021,7.4351144 C11.7354667,7.33210967 11.9203442,7.307252 12.1132017,7.36070202 C12.3061808,7.4142725 12.4544798,7.5269151 12.5584227,7.69883058 C12.6627707,7.87098701 12.6915718,8.05631519 12.6452714,8.25501592 L12.6452714,8.25501592 Z M14.1062546,8.22712472 C13.8132644,7.93427461 13.6666667,7.58072019 13.6666667,7.16666667 C13.6666667,6.75261315 13.8132644,6.39918185 14.1062546,6.10620861 C14.3992448,5.81323537 14.7526061,5.66666667 15.1666667,5.66666667 C15.5806862,5.66666667 15.9340474,5.81323537 16.2270377,6.10620861 C16.5200279,6.39918185 16.6666667,6.75261315 16.6666667,7.16666667 C16.6666667,7.58059706 16.5200279,7.93415148 16.2270377,8.22712472 C15.9340474,8.52005691 15.5806862,8.66666667 15.1666667,8.66666667 C14.7526061,8.66666667 14.3992448,8.52005691 14.1062546,8.22712472 L14.1062546,8.22712472 Z M18.2272999,13.2269146 C17.9342656,13.5197406 17.5808511,13.6666667 17.1667693,13.6666667 C16.7526464,13.6666667 16.399232,13.5197406 16.1061976,13.2269146 C15.8131633,12.9342116 15.6666667,12.5805631 15.6666667,12.1665025 C15.6666667,11.752483 15.8131633,11.3991217 16.1061976,11.1061315 C16.399232,10.8131413 16.7526464,10.6666667 17.1667693,10.6666667 C17.5808511,10.6666667 17.9342656,10.8131413 18.2272999,11.1061315 C18.5203342,11.3991217 18.6666667,11.752483 18.6666667,12.1665025 C18.6666667,12.5805631 18.5202932,12.9339243 18.2272999,13.2269146 L18.2272999,13.2269146 Z" id="path-2"></path>
    </defs>
    <g id="----📱-91.01---Topnav" stroke="none" stroke-width="1" fill="none" fill-rule="evenodd" opacity="0.3">
        <g id="📱-Topnav-/-expanded" transform="translate(-22.000000, -144.000000)">
            <g id="Navigation-options" transform="translate(0.000000, 62.000000)">
                <g id="Group" transform="translate(0.000000, 60.000000)">
                    <g transform="translate(22.000000, 20.000000)" id="Icon" filter="url(#filter-1)">
                        <g>
                            <mask id="mask-3" fill="white">
                                <use xlink:href="#path-2"></use>
                            </mask>
                            <use id="Color" fill="#FFFFFF" xlink:href="#path-2"></use>
                        </g>
                    </g>
                </g>
            </g>
        </g>
    </g>
</svg>