<?xml version="1.0" encoding="UTF-8"?>
<svg width="17px" height="20px" viewBox="0 0 17 20" version="1.1" xmlns="http://www.w3.org/2000/svg" xmlns:xlink="http://www.w3.org/1999/xlink">
    <title>50AD256F-8006-419E-8AEE-C04864806DFB@1x</title>
    <defs>
        <filter id="filter-1">
            <feColorMatrix in="SourceGraphic" type="matrix" values="0 0 0 0 1.000000 0 0 0 0 1.000000 0 0 0 0 1.000000 0 0 0 1.000000 0"></feColorMatrix>
        </filter>
        <path d="M12.625,3.75 C13.6605469,3.75 14.5,2.91054688 14.5,1.875 C14.5,0.839453125 13.6605469,0 12.625,0 C11.5894531,0 10.75,0.839453125 10.75,1.875 C10.75,2.91054688 11.5894531,3.75 12.625,3.75 Z M6.44101562,12.4011719 L5.86289062,13.7496094 L3.25,13.7496094 C2.55976562,13.7496094 2,14.309375 2,14.9996094 C2,15.6898438 2.55976562,16.2496094 3.25,16.2496094 L6.27539062,16.2496094 C7.02734375,16.2496094 7.70429687,15.8027344 7.9984375,15.1132813 L8.34179687,14.3117188 L7.925,14.065625 C7.2484375,13.6660156 6.75078125,13.0746094 6.44101562,12.4011719 Z M17,8.74960937 L15.2800781,8.74960937 L14.2621094,6.66953125 C13.7738281,5.67148437 12.8773437,4.94179687 11.8488281,4.6796875 L9.07226562,3.85390625 C7.96679687,3.58828125 6.815625,3.83242187 5.91445312,4.5234375 L4.36484375,5.71132812 C3.81679687,6.13125 3.71289062,6.915625 4.13359375,7.46367187 C4.55429687,8.01171875 5.33828125,8.11445312 5.8859375,7.69492187 L7.43632812,6.50703125 C7.7359375,6.27695312 8.11757812,6.19453125 8.4234375,6.2671875 L8.99765625,6.43789062 L7.534375,9.8515625 C7.04140625,11.003125 7.48320312,12.3519531 8.56171875,12.9886719 L11.88125,14.9484375 L10.8082031,18.3753906 C10.6019531,19.0339844 10.96875,19.7351562 11.6273437,19.9414062 C11.7519531,19.9804688 11.8777344,19.9992187 12.0015625,19.9992187 C12.5332031,19.9992187 13.0261719,19.6566406 13.19375,19.1222656 L14.4296875,15.1746094 C14.6605469,14.3632813 14.3167969,13.4917969 13.584375,13.05 L11.1921875,11.6382813 L12.4152344,8.58046875 L13.2070312,10.1988281 C13.5195312,10.8371094 14.1804687,11.2492188 14.8910156,11.2492188 L17,11.2492188 C17.6902344,11.2492188 18.25,10.6894531 18.25,9.99921875 C18.25,9.30898437 17.6902344,8.74960937 17,8.74960937 Z" id="path-2"></path>
    </defs>
    <g id="----📱-91.01---Topnav" stroke="none" stroke-width="1" fill="none" fill-rule="evenodd" opacity="0.3">
        <g id="📱-Topnav-/-expanded" transform="translate(-24.000000, -262.000000)">
            <g id="Navigation-options" transform="translate(0.000000, 62.000000)">
                <g id="Group" transform="translate(0.000000, 180.000000)">
                    <g transform="translate(22.000000, 20.000000)" id="Icon" filter="url(#filter-1)">
                        <g>
                            <mask id="mask-3" fill="white">
                                <use xlink:href="#path-2"></use>
                            </mask>
                            <use id="Color" fill="#FFFFFF" xlink:href="#path-2"></use>
                        </g>
                    </g>
                </g>
            </g>
        </g>
    </g>
</svg>