<?xml version="1.0" encoding="UTF-8"?>
<svg width="16px" height="20px" viewBox="0 0 16 20" version="1.1" xmlns="http://www.w3.org/2000/svg" xmlns:xlink="http://www.w3.org/1999/xlink">
    <title>1F6DEE9B-8DC0-4EEC-906D-8437B9F96C44@1x</title>
    <defs>
        <filter id="filter-1">
            <feColorMatrix in="SourceGraphic" type="matrix" values="0 0 0 0 1.000000 0 0 0 0 1.000000 0 0 0 0 1.000000 0 0 0 1.000000 0"></feColorMatrix>
        </filter>
    </defs>
    <g id="----📱-91.01---Topnav" stroke="none" stroke-width="1" fill="none" fill-rule="evenodd" opacity="0.3">
        <g id="📱-Topnav-/-expanded" transform="translate(-24.000000, -442.000000)">
            <g id="Navigation-options" transform="translate(0.000000, 62.000000)">
                <g id="Group" transform="translate(0.000000, 360.000000)">
                    <g transform="translate(22.000000, 20.000000)" id="Icon" filter="url(#filter-1)">
                        <g>
                            <path d="M15.1783348,0 L4.48833185,0 C3.30003461,0 2.33333333,0.965555556 2.33333333,2.15244444 L2.33333333,14.9006667 L2.33333333,16.2568889 C2.33333333,17.4437778 3.30003461,18.4093333 4.48833185,18.4093333 L7,18.4093333 L7,19.5117778 C7,19.6811111 7.05646198,19.8371111 7.20419262,19.9202222 C7.35214575,20.0028889 7.53258183,20 7.67786512,19.912 L9.35785622,18.8913333 L11.0641007,19.9313333 C11.1388559,19.9771111 11.2234006,20 11.3081677,20 C11.3871502,20 11.4663552,19.9802222 11.5375507,19.9402222 C11.6855038,19.8573333 11.6666667,19.7011111 11.6666667,19.5315556 L11.6666667,18.4093333 L15.1783348,18.4093333 C16.3666321,18.4093333 17.3333333,17.4437778 17.3333333,16.2568889 L17.3333333,14.0833333 L17.3333333,11.7888889 L17.3333333,11.77 L17.3333333,9.47555556 L17.3333333,2.15244444 C17.3333333,0.965555556 16.3666321,0 15.1783348,0 Z M16.3333333,16.126627 C16.3333333,16.79197 15.7831277,17.3333333 15.1064174,17.3333333 L11.6666667,17.3333333 L11.6666667,15.9880874 L15.2261931,15.9880874 C15.6339688,15.9880874 16.0134829,15.8691816 16.3333333,15.6666667 L16.3333333,16.126627 Z M16.3333333,13.9380311 C16.3333333,14.5438421 15.8454119,15.0369958 15.2455373,15.0369958 L5.31256675,15.0369958 C5.05604435,15.0369958 4.84800556,15.2471706 4.84800556,15.5063268 C4.84800556,15.7654829 5.05604435,15.9756577 5.31256675,15.9756577 L7,15.9756577 L7,17.3333333 L4.53881232,17.3333333 C3.87414603,17.3333333 3.33333333,16.8568915 3.33333333,16.1854009 L3.33333333,14.6933761 C3.33333333,14.0875651 3.71724545,13.6577238 4.31712,13.6577238 L15.2455373,13.6577238 C15.6461883,13.6577238 16.0190714,13.5359119 16.3333333,13.3315258 L16.3333333,13.9380311 Z M16.3333333,11.8966956 C16.3333333,12.5048989 15.8479615,13 15.2512217,13 L5.97051358,13 L5.97051358,1 L15.1341537,1 C15.7953467,1 16.3333333,1.54852289 16.3333333,2.22266513 L16.3333333,11.8966956 Z" id="Shape" fill="#FFFFFF"></path>
                        </g>
                    </g>
                </g>
            </g>
        </g>
    </g>
</svg>