<?xml version="1.0" encoding="UTF-8"?>
<svg width="16px" height="20px" viewBox="0 0 16 20" version="1.1" xmlns="http://www.w3.org/2000/svg" xmlns:xlink="http://www.w3.org/1999/xlink">
    <title>29908C46-E890-4244-A7AC-0BE877259018@1x</title>
    <defs>
        <filter id="filter-1">
            <feColorMatrix in="SourceGraphic" type="matrix" values="0 0 0 0 1.000000 0 0 0 0 1.000000 0 0 0 0 1.000000 0 0 0 1.000000 0"></feColorMatrix>
        </filter>
        <path d="M17.2822952,9.02781554 L16.2737008,7.6908924 C16.2103999,7.60503496 16.2061798,7.48646991 16.2694807,7.40061246 L17.2569749,6.05142397 C17.3455961,5.92877047 17.3033955,5.75705557 17.1683536,5.68755192 L15.661792,4.90665798 C15.5647306,4.85759658 15.5098699,4.75129688 15.5309702,4.64499718 L15.8137142,3.01370565 C15.8390346,2.86652145 15.7250929,2.72751415 15.5689507,2.7234257 L13.8640463,2.65392205 C13.7543247,2.6498336 13.6572634,2.5762415 13.6277229,2.47403025 L13.1550762,0.879534768 C13.1128756,0.736439019 12.9482932,0.65875847 12.8048112,0.720085219 L11.2349487,1.37423721 C11.1336673,1.41512171 11.0155056,1.39059101 10.9395445,1.31291046 L9.80012819,0.0822870248 C9.69462668,-0.0281011242 9.51738414,-0.0281011242 9.41188263,0.0863754748 L8.28934658,1.33335271 C8.21760555,1.41512171 8.09944386,1.43965241 7.99816241,1.39876791 L6.41985983,0.769146619 C6.27637778,0.711908319 6.11601549,0.789588868 6.07381488,0.932684617 L5.62226843,2.5271801 C5.592728,2.62939135 5.49988668,2.70298345 5.39016511,2.71116035 L3.68526072,2.8051947 C3.52911849,2.8133716 3.41939692,2.9523789 3.44471728,3.0995631 L3.75278168,4.72676618 C3.77388199,4.83306588 3.7190212,4.93936558 3.62617987,4.98842698 L2.1322785,5.78976317 C1.99723657,5.86335527 1.95925603,6.03507017 2.0478773,6.15363522 L3.05647172,7.49055836 C3.11977263,7.57641581 3.12399269,7.69498085 3.06069178,7.7808383 L2.07319766,9.13002679 C1.98457639,9.25268029 2.026777,9.42439519 2.16181893,9.49389884 L3.66838048,10.2747928 C3.76544187,10.3238542 3.82030265,10.4301539 3.79920235,10.5364536 L3.5164583,12.1677451 C3.49113794,12.3149293 3.60507957,12.4539366 3.76122181,12.4580251 L5.46612619,12.5275287 C5.57584776,12.5316172 5.67290915,12.6052093 5.70244957,12.7074205 L6.17931639,14.2978275 C6.221517,14.4409233 6.38609935,14.5186038 6.5295814,14.4572771 L8.09944386,13.8031251 C8.20072531,13.7622406 8.318887,13.7867713 8.39484809,13.8644518 L9.53426438,15.0950753 C9.63976589,15.2054634 9.81700843,15.2054634 9.92250994,15.0909868 L11.045046,13.8440096 C11.116787,13.7622406 11.2349487,13.7377099 11.3362302,13.7785944 L12.9145327,14.4082157 C13.0580148,14.465454 13.2183771,14.3877734 13.2605777,14.2446777 L13.7121241,12.6501822 C13.7416646,12.547971 13.8345059,12.4743789 13.9442275,12.466202 L15.6491319,12.3721676 C15.8052741,12.3639907 15.9149957,12.2249834 15.8896753,12.0777992 L15.5816109,10.4505961 C15.5605106,10.3442964 15.6153714,10.2379967 15.7082127,10.1889353 L17.2021141,9.38759914 C17.337156,9.32218394 17.3751365,9.15046904 17.2822952,9.02781554 L17.2822952,9.02781554 Z M5.49988668,14.9846871 C5.74887024,15.2259057 6.08647507,15.3690014 6.45362032,15.3690014 C6.58444219,15.3690014 6.711044,15.3526476 6.83764581,15.3158516 L6.83764581,15.3158516 L7.92642138,14.9969525 L8.7662134,15.7451388 C8.79153376,15.7696695 8.82107418,15.7942002 8.8506146,15.8146425 L8.8506146,15.8146425 L7.50019529,19.8703848 C7.45377462,20.0134806 7.25965185,20.0461882 7.16681052,19.9276231 L7.16681052,19.9276231 L6.18353645,18.7051766 C6.13711579,18.6438499 6.05693464,18.6193192 5.98097356,18.6397614 L5.98097356,18.6397614 L4.44909164,19.0731371 C4.30138953,19.1140216 4.1663476,18.9831912 4.21276826,18.8400955 L4.21276826,18.8400955 Z M13.842946,14.9846871 L15.1300644,18.836007 C15.1764851,18.9750143 15.0414432,19.1099332 14.893741,19.0690487 L14.893741,19.0690487 L13.3618591,18.635673 C13.2901181,18.6152307 13.2057169,18.6397614 13.1592962,18.7010882 L13.1592962,18.7010882 L12.1760222,19.9235347 C12.0789608,20.0420997 11.8890581,20.0093921 11.8426374,19.8662964 L11.8426374,19.8662964 L10.4922181,15.810554 C10.5217585,15.7901118 10.5470789,15.7655811 10.5766193,15.7410504 L10.5766193,15.7410504 L11.4164113,14.9969525 L12.5051869,15.3158516 C12.6275686,15.3485592 12.7583905,15.3690014 12.8892124,15.3690014 C13.2563576,15.3690014 13.5981825,15.2259057 13.842946,14.9846871 L13.842946,14.9846871 Z M9.66930632,3.10365155 C12.2224428,3.10365155 14.3029326,5.11925738 14.3029326,7.59276961 C14.3029326,10.0703703 12.2224428,12.0818877 9.66930632,12.0818877 C7.11616979,12.0818877 5.03568004,10.0662818 5.03568004,7.59276961 C5.03568004,5.11925738 7.11616979,3.10365155 9.66930632,3.10365155 Z M9.33170149,4.78400448 L8.67337207,6.35396927 L6.92626708,6.47662277 C6.59710237,6.50115347 6.4662805,6.89773311 6.71526406,7.10215561 L8.0530232,8.1978602 L7.63523722,9.84550554 C7.55505607,10.1562277 7.90532108,10.4015347 8.18384507,10.2339083 L9.66930632,9.33853774 L11.1547676,10.2339083 C11.4332915,10.4015347 11.7835566,10.1562277 11.7033754,9.84550554 L11.2855894,8.1978602 L12.6233486,7.10215561 C12.8765522,6.89773311 12.7457303,6.50115347 12.4165656,6.47662277 L10.6694606,6.35396927 L10.0111312,4.78400448 C9.88874945,4.48963608 9.45408324,4.48963608 9.33170149,4.78400448 Z" id="path-2"></path>
    </defs>
    <g id="----📱-91.01---Topnav" stroke="none" stroke-width="1" fill="none" fill-rule="evenodd" opacity="0.3">
        <g id="📱-Topnav-/-expanded" transform="translate(-24.000000, -382.000000)">
            <g id="Navigation-options" transform="translate(0.000000, 62.000000)">
                <g id="Group" transform="translate(0.000000, 300.000000)">
                    <g transform="translate(22.000000, 20.000000)" id="Icon" filter="url(#filter-1)">
                        <g>
                            <mask id="mask-3" fill="white">
                                <use xlink:href="#path-2"></use>
                            </mask>
                            <use id="Color" fill="#FFFFFF" xlink:href="#path-2"></use>
                        </g>
                    </g>
                </g>
            </g>
        </g>
    </g>
</svg>