<?xml version="1.0" encoding="UTF-8"?>
<svg width="20px" height="18px" viewBox="0 0 20 18" version="1.1" xmlns="http://www.w3.org/2000/svg" xmlns:xlink="http://www.w3.org/1999/xlink">
    <title>AFDA8ED2-E9CF-4BAA-BD9A-9738437E3F50@1x</title>
    <defs>
        <filter id="filter-1">
            <feColorMatrix in="SourceGraphic" type="matrix" values="0 0 0 0 1.000000 0 0 0 0 1.000000 0 0 0 0 1.000000 0 0 0 1.000000 0"></feColorMatrix>
        </filter>
        <path d="M2.5,3.85714286 L-1.77635684e-15,3.85714286 C-1.77635684e-15,8.73519345 3.91796875,12.6904762 8.75,12.6904762 L8.75,18.3690476 C8.75,18.7160714 9.03125,19 9.375,19 L10.625,19 C10.96875,19 11.25,18.7160714 11.25,18.3690476 L11.25,12.6904762 C11.25,7.8124256 7.33203125,3.85714286 2.5,3.85714286 Z M17.5,1.33333333 C14.2109375,1.33333333 11.3515625,3.16703869 9.85546875,5.87619048 C10.9375,7.0671131 11.7382812,8.51436012 12.1601562,10.1193452 C16.5625,9.65796131 20,5.90379464 20,1.33333333 L17.5,1.33333333 Z" id="path-2"></path>
    </defs>
    <g id="----📱-91.01---Topnav" stroke="none" stroke-width="1" fill="none" fill-rule="evenodd" opacity="0.3">
        <g id="📱-Topnav-/-expanded" transform="translate(-22.000000, -323.000000)">
            <g id="Navigation-options" transform="translate(0.000000, 62.000000)">
                <g id="Group" transform="translate(0.000000, 240.000000)">
                    <g transform="translate(22.000000, 20.000000)" id="Icon" filter="url(#filter-1)">
                        <g>
                            <mask id="mask-3" fill="white">
                                <use xlink:href="#path-2"></use>
                            </mask>
                            <use id="Color" fill="#FFFFFF" xlink:href="#path-2"></use>
                        </g>
                    </g>
                </g>
            </g>
        </g>
    </g>
</svg>